PathFileType	4	(X/Y/Z)	RBDS022\RBDS022runT45.trc
DataRate	CameraRate	NumFrames	NumMarkers	Units	OrigDataRate	OrigDataStartFrame	OrigNumFrames
150.000000	150.000000	4	32	mm	150.000000	1125	4500
Frame#	Time	L.ASIS			L.Heel.Bottom			L.Heel.Lateral			L.Heel.Top			L.Iliac.Crest			L.MT1			L.MT5			L.PSIS			L.Shank.Bottom.Lateral			L.Shank.Bottom.Medial			L.Shank.Top.Lateral			L.Shank.Top.Medial			L.Thigh.Bottom.Lateral			L.Thigh.Bottom.Medial			L.Thigh.Top.Lateral			L.Thigh.Top.Medial			R.ASIS			R.Heel.Bottom			R.Heel.Lateral			R.Heel.Top			R.Iliac.Crest			R.MT1			R.MT5			R.PSIS			R.Shank.Bottom.Lateral			R.Shank.Bottom.Medial			R.Shank.Top.Lateral			R.Shank.Top.Medial			R.Thigh.Bottom.Lateral			R.Thigh.Bottom.Medial			R.Thigh.Top.Lateral			R.Thigh.Top.Medial			
		X1	Y1	Z1	X2	Y2	Z2	X3	Y3	Z3	X4	Y4	Z4	X5	Y5	Z5	X6	Y6	Z6	X7	Y7	Z7	X8	Y8	Z8	X9	Y9	Z9	X10	Y10	Z10	X11	Y11	Z11	X12	Y12	Z12	X13	Y13	Z13	X14	Y14	Z14	X15	Y15	Z15	X16	Y16	Z16	X17	Y17	Z17	X18	Y18	Z18	X19	Y19	Z19	X20	Y20	Z20	X21	Y21	Z21	X22	Y22	Z22	X23	Y23	Z23	X24	Y24	Z24	X25	Y25	Z25	X26	Y26	Z26	X27	Y27	Z27	X28	Y28	Z28	X29	Y29	Z29	X30	Y30	Z30	X31	Y31	Z31	X32	Y32	Z32	

1126	7.500000000000001	2164.113807806461	933.7612281370289	873.8655385183239	1715.267691262294	77.91943811493839	1004.015618940652	1750.298820724103	93.32803948801339	958.5626806444888	1735.434816982045	119.7940319156829	1006.660667626697	2092.190144697625	1018.76968997412	834.0963592636757	1928.48887254882	36.95432227062498	1037.423254413639	1891.462211249919	40.29145320781053	924.7282561440122	2005.151912637129	981.6012074278589	959.970679842883	1846.96912086236	188.5941524893607	933.7707041577396	1812.939854475907	218.5474496559271	966.0133561436271	1881.41712046146	255.676599599465	908.3409974321314	1850.823507424339	285.8477248174733	940.5939164245948	2058.168238045103	566.2198821368181	859.5654647047928	1993.567010101054	577.5147736288758	891.8153043312991	2060.479835837145	671.3112512367569	829.7218085654005	2000.521870982989	682.9520881404608	863.7584616185716	2178.564735707277	932.6122468789252	1110.382946732464	1902.115984973259	284.8339496744671	1052.342255971285	1933.415247595876	282.6072749254195	1100.473319321545	1941.265009870976	304.5845252716906	1049.671352321529	2116.538668220006	998.2908307246404	1156.62810853576	2036.25181886385	119.1475866115558	1054.59942040996	2013.713070123188	155.6117667061583	1159.717894744168	2013.709561655193	976.9181674848934	1045.298890624039	2042.542186748405	329.5900059667957	1121.16140363358	2026.33309767907	360.0453064953903	1083.080782518618	2106.359954936206	383.9166832492174	1134.863078055136	2083.91638437809	414.9977380828377	1098.015898169371	2285.4668312518	608.4983229215608	1158.051884471023	2230.419737558886	575.57517710604	1126.943928639175	2223.31149786047	698.3703948789296	1175.555045614583	2168.676307634313	663.7985519089223	1152.942439988889	
1127	7.506666666666667	2167.228883540811	935.9279926256507	875.0015765476326	1690.256028929108	90.35347519873264	1003.620874387828	1725.960220622922	102.9411584340812	957.9644829434377	1712.556416100881	130.9760120466285	1005.638518689024	2099.02182399188	1021.997078012865	833.2241083898773	1899.430161634913	37.08269711112684	1037.237424635954	1862.961814150837	40.97733859547598	924.4648788312923	2007.592287519602	985.573852378856	958.4082941541059	1823.773208805859	196.669203232938	932.7976280794312	1790.633484064666	226.7026069521346	965.7824612853723	1858.944979542941	263.5237628097263	907.732596694273	1828.853476245625	293.8045879081988	940.404810399232	2044.543103450847	571.635673705998	859.1848779377557	1980.766942614758	586.2118870786377	891.611625463113	2052.469944495443	676.5254311271802	829.6652931885708	1993.204128737816	691.1307445737801	863.7348563900832	2179.253190758637	938.3457499323118	1111.07080989617	1926.733878013515	260.3425065455774	1050.654070442047	1957.633437134527	260.9241707275414	1099.065579714833	1964.245078247133	283.4247383390449	1048.237546063571	2115.364152392197	1004.78736697368	1156.732133456037	2074.946992003736	106.5892646157984	1055.18374576999	2048.113268429182	141.2497809056357	1159.755144920743	2014.640945354681	981.2930403179517	1044.165208569784	2062.789339460518	317.4718924103136	1119.978576906734	2044.79225781556	346.1721829509712	1081.324437351401	2122.088549058701	376.8077133691616	1133.65311700045	2097.738945637698	405.6972187247112	1096.177862529579	2289.971421512239	616.9955733244773	1156.476342840569	2235.30999417609	583.1944619578228	1125.644312695491	2226.174210219547	705.7097164038105	1174.785747418382	2172.184523451411	670.4371205062399	1151.79895690035	
1128	7.513333333333334	2170.449595736556	938.2802297807087	876.0743774429531	1667.121461799879	104.2882839285269	1002.986962482549	1703.345066666072	113.7261255328404	957.1486232659944	1691.780308365095	143.3010639392062	1004.36608145567	2106.036762979867	1025.123022940191	832.5852698153634	1871.024766676535	37.58989582034414	1036.844881326038	1835.055802190899	42.15444866968617	924.0449661707587	2010.231377502474	989.5602957436131	957.1039362364857	1802.075118912883	205.4351377479238	931.5605486394824	1769.805684053395	235.3991834224735	965.3873750479752	1837.795927141569	272.246926683439	906.9423235118492	1808.12953769647	302.478610392395	940.1144520187524	2031.437347182805	578.1208638864151	858.6292660790699	1968.844269984333	595.9022743742645	891.5644395220592	2044.797215848137	682.5281773068676	829.402296928902	1986.588518841753	700.0107356377935	863.8150250691215	2180.253065221205	944.1775217820903	1111.544857747051	1953.122708724419	236.0980546754282	1048.409763760219	1983.257662413498	239.4017376770869	1097.175885908178	1988.689941711518	262.3653524202487	1046.359295157407	2115.22733136846	1011.642968019152	1156.798995371424	2114.425669649588	95.52497774862933	1055.370176587787	2083.187135980163	127.8520475547036	1159.398816371125	2015.837977838276	985.7877362904264	1043.248248160755	2083.519911832249	305.2966674589212	1118.483258719668	2063.964124041665	332.0972017766493	1079.206107887933	2137.814893865714	369.307933774826	1132.276733056643	2111.852038247449	395.8497272820753	1094.097812737122	2293.419535408502	624.6252355030605	1154.924933721944	2238.921199271391	590.1902706114251	1124.518589014373	2228.482789246923	712.4899903121009	1174.030890079461	2174.923437384622	676.8016362566497	1150.735990534978	
1129	7.52	2173.698549458004	940.7880603803817	877.0419096206508	1646.036912550008	119.5943914748165	1002.156444354815	1682.547830090095	125.6166679114315	956.1448991620089	1673.212468992861	156.6252352317602	1002.876014840629	2113.090677210586	1028.165009862055	832.2058555816244	1843.359707419116	38.61149420153031	1036.213161829963	1807.77424557364	43.9994405195032	923.4836592597117	2013.008184621874	993.5182936372112	956.064879129677	1781.977525283351	214.7467364884808	930.0819110498845	1750.543843557588	244.5039332877316	964.8269212970242	1818.095257555674	281.6844585832396	905.9947097503413	1788.790146526465	311.7227975955149	939.7397454785397	2019.003141006008	585.511046616321	857.9811723176556	1957.911134109338	606.3637728974389	891.7315863364427	2037.523386420529	689.1900736410565	828.9733461897949	1980.721446345363	709.4193083972403	864.0521370493581	2181.504643114995	949.9790119763453	1111.792432438355	1981.210074176988	212.3980115431431	1045.735637482233	2010.271693346567	218.2784594653127	1094.906062932704	2014.522956623074	241.6681651723784	1044.137405405746	2115.968923044734	1018.706951478117	1156.844233741298	2154.41633520219	86.16561678214528	1055.102395318563	2118.853179864002	115.5819104884428	1158.63329025676	2017.274048540804	990.3353840233659	1042.550096283565	2104.729770163354	293.1654198072454	1116.741263977899	2083.832234127721	317.9760146169583	1076.824603266219	2153.588223521734	361.4329233417842	1130.793510943222	2126.301345323902	385.5308719565149	1091.876210153483	2295.855000858315	631.2158035251005	1153.434164059175	2241.297831473496	596.3698161431374	1123.605384865373	2230.271903647792	718.5530634387552	1173.283291201843	2176.915127358228	682.7057317994469	1149.783087221738	
